<svg width="1080" height="720" viewBox="0 0 1080 720" fill="none" xmlns="http://www.w3.org/2000/svg">
<rect width="1080" height="720" fill="#1E1E1E"/>
<g clip-path="url(#clip0_0_1)">
<rect width="1080" height="720" fill="#00BAFF"/>
<path d="M1300 757.025C1300 707.13 1287.84 657.866 1264.41 612.829C1240.99 567.792 1206.88 528.121 1164.58 496.712C1122.29 465.303 1072.88 442.95 1019.95 431.285C967.027 419.62 911.928 418.938 858.679 429.288C805.429 439.638 755.375 460.76 712.17 491.11C668.966 521.461 633.703 560.273 608.956 604.713C584.209 649.154 570.604 698.099 569.133 747.976C567.663 797.852 578.365 847.4 600.458 893L934.5 757.025H1300Z" fill="#0067FC"/>
<path d="M826.5 549.11H813.17V619.52H855.55V606.6H826.5V549.11Z" fill="white"/>
<path d="M883.74 567.41C868.44 567.41 856.74 578.81 856.74 593.82C856.74 608.83 868.39 620.29 883.74 620.28C899.09 620.27 910.74 608.93 910.74 593.87C910.74 578.81 899.26 567.47 883.8 567.41M883.67 608.41C875.48 608.41 869.67 602.22 869.76 593.7C869.85 585.18 875.61 579.35 883.81 579.36C892.01 579.37 897.81 585.36 897.74 593.94C897.67 602.52 891.9 608.47 883.66 608.41" fill="white"/>
<path d="M954.15 571C949.898 568.62 945.103 567.38 940.23 567.4C924.93 567.34 913.23 578.8 913.23 593.8C913.23 608.8 924.89 620.28 940.23 620.27C945.133 620.302 949.96 619.051 954.23 616.64V622.35C954.23 630.92 948.39 636.87 940.15 636.87C929.57 636.87 924.91 626.61 924.91 626.61L915.22 632.5C915.22 632.5 920.79 648.77 940.22 648.77C955.62 648.77 967.22 637.42 967.22 622.35V567.35H954.22V571M954.22 594.06C954.11 602.54 948.34 608.44 940.15 608.38C931.96 608.32 926.15 602.18 926.25 593.67C926.35 585.16 932.09 579.32 940.3 579.32C948.51 579.32 954.18 585.22 954.22 593.72V594.05" fill="white"/>
<path d="M1010.64 571C1006.39 568.619 1001.59 567.379 996.72 567.4C981.42 567.34 969.72 578.8 969.72 593.8C969.72 608.8 981.37 620.28 996.72 620.27C1001.62 620.301 1006.45 619.049 1010.72 616.64V622.35C1010.72 630.92 1004.87 636.87 996.63 636.87C986.05 636.87 981.4 626.61 981.4 626.61L971.7 632.5C971.7 632.5 977.27 648.76 996.7 648.76C1012.1 648.76 1023.7 637.42 1023.7 622.35V567.35H1010.7V571M1010.7 594.06C1010.59 602.54 1004.82 608.44 996.63 608.38C988.44 608.32 982.63 602.18 982.73 593.67C982.83 585.16 988.57 579.31 996.73 579.32C1004.89 579.33 1010.61 585.22 1010.66 593.72V594.06" fill="white"/>
<path d="M1042.24 567.37H1028.91V619.52H1042.24V567.37Z" fill="white"/>
<path d="M1035.58 562.34C1036.9 562.34 1038.19 561.949 1039.29 561.216C1040.38 560.483 1041.24 559.441 1041.74 558.222C1042.25 557.004 1042.38 555.663 1042.12 554.369C1041.86 553.075 1041.23 551.886 1040.3 550.954C1039.36 550.021 1038.18 549.386 1036.88 549.128C1035.59 548.871 1034.25 549.003 1033.03 549.508C1031.81 550.013 1030.77 550.867 1030.03 551.964C1029.3 553.061 1028.91 554.351 1028.91 555.67C1028.91 557.439 1029.61 559.136 1030.86 560.386C1032.11 561.637 1033.81 562.34 1035.58 562.34Z" fill="white"/>
<path d="M786.1 559.06C783.569 557.774 780.968 556.629 778.31 555.63L777.57 555.09C777.57 555.09 759.92 542.47 752.14 539.19C744.36 535.91 730.83 528.79 717.14 529.19C710.418 529.342 703.739 530.309 697.25 532.07C694.48 532.74 692.62 533.52 695.66 534.95C696.66 535.43 701.02 538.01 706.28 541.02C713.98 545.41 723.65 550.71 727.86 551.67C734.12 553.169 740.544 553.871 746.98 553.76C756.65 553.56 761.35 557.68 762.3 559.19C760.57 556.73 753.99 554.76 745.2 555.3C736.74 555.82 729.94 555.3 725.99 554.08C718.098 551.635 710.392 548.627 702.93 545.08C700.983 545.66 699.07 546.348 697.2 547.14C694.77 548.14 692.48 550.03 695.9 551C698.35 551.69 721.22 559.87 727.9 560.26C733.795 560.678 739.72 560.342 745.53 559.26C754.18 557.63 758.69 561.18 759.74 562.56C756.806 566.681 755.392 571.693 755.74 576.74C724.12 571.16 714.03 568.28 706.89 567.05C694.4 564.9 678.55 575.48 676.6 588.57C675.5 596.02 677.4 602.97 681.92 609.4C686.92 616.52 693.51 622.66 694.47 623.96C695.08 625.08 694.88 628.02 694.92 629.96C694.92 632.19 697.76 634.18 699.39 634.33C700.39 634.42 719.08 640.27 719.08 640.27L746.81 648.8C746.81 648.8 747.24 646.89 747.32 646.08C747.53 644.03 745.97 638.96 739.47 637.08C729.91 634.2 728.02 633.66 725.99 633.08C724.89 632.75 725.66 632.73 727.36 631.39C730.116 629.035 732.376 626.156 734.01 622.92C739.67 610.92 732.55 600.16 732.55 600.16C735.652 603.847 737.756 608.268 738.66 613C740.75 623.2 733.84 631.29 733.84 631.29L737.96 632.49C737.96 632.49 764.61 605.65 767.21 602.75C769.41 600.3 773.21 598.75 775.21 598.13C782.31 596.07 791.21 592.13 793.46 590.65C795.71 589.17 798.46 584.17 799.19 582.92C800.103 581.476 800.709 579.859 800.97 578.17C801.03 577.52 797.23 572.45 797.23 572.45C797.23 572.45 791.16 562.17 786.15 559.13" fill="white"/>
<path d="M708.54 641.76C707.923 642.114 707.472 642.698 707.285 643.384C707.097 644.069 707.189 644.802 707.54 645.42C707.814 645.903 708.229 646.29 708.73 646.53C710.73 647.6 717.61 643.85 717.61 643.85L710.75 641.69C710.039 641.427 709.253 641.452 708.56 641.76" fill="white"/>
</g>
<defs>
<clipPath id="clip0_0_1">
<rect width="1080" height="720" fill="white"/>
</clipPath>
</defs>
</svg>
