<svg width="1920" height="1080" viewBox="0 0 1920 1080" fill="none" xmlns="http://www.w3.org/2000/svg">
<rect width="1920" height="1080" fill="#1E1E1E"/>
<g clip-path="url(#clip0_0_1)">
<rect width="1920" height="1080" fill="#00BAFF"/>
<path d="M2207 1085C2207 1015.6 2190.12 947.075 2157.59 884.432C2125.06 821.789 2077.7 766.608 2018.97 722.92C1960.25 679.232 1891.64 648.14 1818.15 631.915C1744.66 615.689 1668.16 614.74 1594.22 629.137C1520.28 643.534 1450.78 672.913 1390.79 715.129C1330.8 757.344 1281.84 811.33 1247.48 873.144C1213.12 934.958 1194.23 1003.04 1192.19 1072.41C1190.14 1141.79 1205 1210.71 1235.68 1274.13L1699.5 1085H2207Z" fill="#0067FC"/>
<path d="M1587.5 855.11H1574.17V925.52H1616.55V912.6H1587.5V855.11Z" fill="white"/>
<path d="M1644.74 873.41C1629.44 873.41 1617.74 884.81 1617.74 899.82C1617.74 914.83 1629.39 926.29 1644.74 926.28C1660.09 926.27 1671.74 914.93 1671.74 899.87C1671.74 884.81 1660.26 873.47 1644.8 873.41M1644.67 914.41C1636.48 914.41 1630.67 908.22 1630.76 899.7C1630.85 891.18 1636.61 885.35 1644.81 885.36C1653.01 885.37 1658.81 891.36 1658.74 899.94C1658.67 908.52 1652.9 914.47 1644.66 914.41" fill="white"/>
<path d="M1715.15 877C1710.9 874.62 1706.1 873.38 1701.23 873.4C1685.93 873.34 1674.23 884.8 1674.23 899.8C1674.23 914.8 1685.89 926.28 1701.23 926.27C1706.13 926.302 1710.96 925.051 1715.23 922.64V928.35C1715.23 936.92 1709.39 942.87 1701.15 942.87C1690.57 942.87 1685.91 932.61 1685.91 932.61L1676.22 938.5C1676.22 938.5 1681.79 954.77 1701.22 954.77C1716.62 954.77 1728.22 943.42 1728.22 928.35V873.35H1715.22V877M1715.22 900.06C1715.11 908.54 1709.34 914.44 1701.15 914.38C1692.96 914.32 1687.15 908.18 1687.25 899.67C1687.35 891.16 1693.09 885.32 1701.3 885.32C1709.51 885.32 1715.18 891.22 1715.22 899.72V900.05" fill="white"/>
<path d="M1771.64 877C1767.39 874.619 1762.59 873.379 1757.72 873.4C1742.42 873.34 1730.72 884.8 1730.72 899.8C1730.72 914.8 1742.37 926.28 1757.72 926.27C1762.62 926.301 1767.45 925.05 1771.72 922.64V928.35C1771.72 936.92 1765.87 942.87 1757.63 942.87C1747.05 942.87 1742.4 932.61 1742.4 932.61L1732.7 938.5C1732.7 938.5 1738.27 954.76 1757.7 954.76C1773.1 954.76 1784.7 943.42 1784.7 928.35V873.35H1771.7V877M1771.7 900.06C1771.59 908.54 1765.82 914.44 1757.63 914.38C1749.44 914.32 1743.63 908.18 1743.73 899.67C1743.83 891.16 1749.57 885.31 1757.73 885.32C1765.89 885.33 1771.61 891.22 1771.66 899.72V900.06" fill="white"/>
<path d="M1803.24 873.37H1789.91V925.52H1803.24V873.37Z" fill="white"/>
<path d="M1796.58 868.34C1797.9 868.34 1799.19 867.949 1800.29 867.216C1801.38 866.483 1802.24 865.441 1802.74 864.223C1803.25 863.004 1803.38 861.663 1803.12 860.369C1802.86 859.075 1802.23 857.886 1801.3 856.954C1800.36 856.021 1799.18 855.386 1797.88 855.128C1796.59 854.871 1795.25 855.003 1794.03 855.508C1792.81 856.013 1791.77 856.867 1791.03 857.964C1790.3 859.061 1789.91 860.351 1789.91 861.67C1789.91 863.439 1790.61 865.136 1791.86 866.386C1793.11 867.637 1794.81 868.34 1796.58 868.34Z" fill="white"/>
<path d="M1547.1 865.06C1544.57 863.774 1541.97 862.629 1539.31 861.63L1538.57 861.09C1538.57 861.09 1520.92 848.47 1513.14 845.19C1505.36 841.91 1491.83 834.79 1478.14 835.19C1471.42 835.342 1464.74 836.309 1458.25 838.07C1455.48 838.74 1453.62 839.52 1456.66 840.95C1457.66 841.43 1462.02 844.01 1467.28 847.02C1474.98 851.41 1484.65 856.71 1488.86 857.67C1495.12 859.169 1501.54 859.871 1507.98 859.76C1517.65 859.56 1522.35 863.68 1523.3 865.19C1521.57 862.73 1514.99 860.76 1506.2 861.3C1497.74 861.82 1490.94 861.3 1486.99 860.08C1479.1 857.635 1471.39 854.627 1463.93 851.08C1461.98 851.66 1460.07 852.348 1458.2 853.14C1455.77 854.14 1453.48 856.03 1456.9 857C1459.35 857.69 1482.22 865.87 1488.9 866.26C1494.8 866.678 1500.72 866.342 1506.53 865.26C1515.18 863.63 1519.69 867.18 1520.74 868.56C1517.81 872.681 1516.39 877.693 1516.74 882.74C1485.12 877.16 1475.03 874.28 1467.89 873.05C1455.4 870.9 1439.55 881.48 1437.6 894.57C1436.5 902.02 1438.4 908.97 1442.92 915.4C1447.92 922.52 1454.51 928.66 1455.47 929.96C1456.08 931.08 1455.88 934.02 1455.92 935.96C1455.92 938.19 1458.76 940.18 1460.39 940.33C1461.39 940.42 1480.08 946.27 1480.08 946.27L1507.81 954.8C1507.81 954.8 1508.24 952.89 1508.32 952.08C1508.53 950.03 1506.97 944.96 1500.47 943.08C1490.91 940.2 1489.02 939.66 1486.99 939.08C1485.89 938.75 1486.66 938.73 1488.36 937.39C1491.12 935.035 1493.38 932.156 1495.01 928.92C1500.67 916.92 1493.55 906.16 1493.55 906.16C1496.65 909.847 1498.76 914.268 1499.66 919C1501.75 929.2 1494.84 937.29 1494.84 937.29L1498.96 938.49C1498.96 938.49 1525.61 911.65 1528.21 908.75C1530.41 906.3 1534.21 904.75 1536.21 904.13C1543.31 902.07 1552.21 898.13 1554.46 896.65C1556.71 895.17 1559.46 890.17 1560.19 888.92C1561.1 887.476 1561.71 885.859 1561.97 884.17C1562.03 883.52 1558.23 878.45 1558.23 878.45C1558.23 878.45 1552.16 868.17 1547.15 865.13" fill="white"/>
<path d="M1469.54 947.76C1468.92 948.114 1468.47 948.698 1468.28 949.384C1468.1 950.069 1468.19 950.802 1468.54 951.42C1468.81 951.903 1469.23 952.29 1469.73 952.53C1471.73 953.6 1478.61 949.85 1478.61 949.85L1471.75 947.69C1471.04 947.427 1470.25 947.452 1469.56 947.76" fill="white"/>
</g>
<defs>
<clipPath id="clip0_0_1">
<rect width="1920" height="1080" fill="white"/>
</clipPath>
</defs>
</svg>
